<svg width="512" height="512" viewBox="0 0 512 512" fill="none" xmlns="http://www.w3.org/2000/svg">
<path d="M493.494 442.771H453.246V475.569H500V485.549H441V393H499.362V403.043H453.246V432.791H493.494V442.771Z" fill="#2F3640"/>
<path d="M298 449.752C296.876 459.282 293.317 466.647 287.322 471.845C281.369 477.002 273.439 479.581 263.531 479.581C252.79 479.581 244.173 475.764 237.679 468.132C231.226 460.499 228 450.288 228 437.499V428.835C228 420.459 229.499 413.095 232.496 406.741C235.535 400.388 239.823 395.52 245.36 392.136C250.896 388.712 257.307 387 264.592 387C274.25 387 281.993 389.682 287.822 395.045C293.65 400.367 297.043 407.752 298 417.2H285.948C284.908 410.021 282.639 404.823 279.142 401.605C275.687 398.387 270.837 396.778 264.592 396.778C256.933 396.778 250.917 399.583 246.546 405.194C242.216 410.805 240.052 418.788 240.052 429.144V437.87C240.052 447.648 242.112 455.425 246.234 461.201C250.355 466.977 256.121 469.865 263.531 469.865C270.191 469.865 275.291 468.379 278.83 465.409C282.41 462.397 284.783 457.178 285.948 449.752H298Z" fill="#2F3640"/>
<path d="M67.2787 456.782H29.6596L21.2108 480.014H9L43.2888 391H53.6495L88 480.014H75.8509L67.2787 456.782ZM33.2365 447.123H63.7635L48.4692 405.489L33.2365 447.123Z" fill="#2F3640"/>
<path d="M492.634 260.818H453.346V301.8H441V209H499V219.07H453.346V250.811H492.634V260.818Z" fill="#2F3640"/>
<path d="M298 215.801H268.906V296.323H257.032V215.801H228V206H298V215.801Z" fill="#2F3640"/>
<path d="M83 300.492H71.0992L25.9008 230.758V300.492H14V210H25.9008L71.2225 280.044V210H83V300.492Z" fill="#2F3640"/>
<path d="M503 26V87.823C502.958 96.3991 500.245 103.414 494.86 108.868C489.516 114.322 482.252 117.381 473.068 118.048L469.875 118.172C459.898 118.172 451.945 115.487 446.017 110.117C440.089 104.746 437.083 97.3566 437 87.9479V26H448.898V87.5732C448.898 94.151 450.713 99.2717 454.345 102.935C457.977 106.557 463.154 108.368 469.875 108.368C476.679 108.368 481.877 106.557 485.467 102.935C489.099 99.3133 490.915 94.2134 490.915 87.6356V26H503Z" fill="#2F3640"/>
<path d="M281.541 91.8776H244.398L236.056 115.143H224L257.855 26H268.084L302 115.143H290.005L281.541 91.8776ZM247.93 82.2041H278.07L262.97 40.5102L247.93 82.2041Z" fill="#2F3640"/>
<path d="M83 105.523C79.9222 109.896 75.6174 113.176 70.0856 115.363C64.5954 117.508 58.1901 118.581 50.8699 118.581C43.4664 118.581 36.8948 116.868 31.1551 113.444C25.4153 109.979 20.9649 105.069 17.8039 98.7154C14.6845 92.3618 13.0832 84.9975 13 76.6223V68.7628C13 55.1893 16.1818 44.6688 22.5455 37.2013C28.9507 29.7338 37.9346 26 49.4973 26C58.9804 26 66.6126 28.4135 72.3939 33.2406C78.1753 38.0264 81.7106 44.8338 83 53.6628H71.0214C68.7754 41.7395 61.6215 35.7779 49.5597 35.7779C41.5324 35.7779 35.4391 38.5834 31.2799 44.1943C27.1622 49.764 25.0826 57.8504 25.041 68.4534V75.8178C25.041 85.9257 27.3702 93.9708 32.0285 99.9531C36.6869 105.894 42.9881 108.865 50.9323 108.865C55.4242 108.865 59.3547 108.37 62.7237 107.379C66.0927 106.389 68.8794 104.718 71.0838 102.367V82.1301H50.0588V72.476H83V105.523Z" fill="#2F3640"/>
</svg>
